<mxfile host="app.diagrams.net" modified="2020-05-19T12:02:56.747Z" agent="5.0 (Windows NT 10.0; Win64; x64) AppleWebKit/537.36 (KHTML, like Gecko) Chrome/81.0.4044.138 Safari/537.36" etag="yJCFLSYY51BUm1au-WPH" version="13.1.2" type="github">
  <diagram id="29hRNnKXACexP1v_duyr" name="Page-1">
    <mxGraphModel dx="2249" dy="794" grid="1" gridSize="10" guides="1" tooltips="1" connect="1" arrows="1" fold="1" page="1" pageScale="1" pageWidth="827" pageHeight="1169" math="0" shadow="0">
      <root>
        <mxCell id="0" />
        <mxCell id="1" parent="0" />
        <mxCell id="Ck8MsScD6dfkMRM8H-GI-1" value="Usuario(nombre, nombreUsuario, contraseña, &lt;u&gt;correo&lt;/u&gt;, favorito)" style="text;html=1;strokeColor=none;fillColor=none;align=center;verticalAlign=middle;whiteSpace=wrap;rounded=0;" parent="1" vertex="1">
          <mxGeometry x="44" y="180" width="370" height="20" as="geometry" />
        </mxCell>
        <mxCell id="Ck8MsScD6dfkMRM8H-GI-2" value="Plato (&lt;u&gt;códigoPlato&lt;/u&gt;, nombre, desayuno, descripcion, kcal, vegano, vegetariano, frutosSecos, gluten, proteinas, polisacaridos, glucidosSimples, lípidos, enlace, imagen)" style="text;html=1;strokeColor=none;fillColor=none;align=center;verticalAlign=middle;whiteSpace=wrap;rounded=0;" parent="1" vertex="1">
          <mxGeometry x="60" y="460" width="950" height="20" as="geometry" />
        </mxCell>
        <mxCell id="Ck8MsScD6dfkMRM8H-GI-3" value="Ingrediente(&lt;u&gt;códigoIngrediente&lt;/u&gt;, nombre, vegano, vegetariano, frutosSecos, gluten)" style="text;html=1;strokeColor=none;fillColor=none;align=center;verticalAlign=middle;whiteSpace=wrap;rounded=0;" parent="1" vertex="1">
          <mxGeometry x="75" y="610" width="580" height="20" as="geometry" />
        </mxCell>
        <mxCell id="Ck8MsScD6dfkMRM8H-GI-4" value="Dieta(&lt;u&gt;códigoDieta&lt;/u&gt;, titulo, descripción, fecha)" style="text;html=1;strokeColor=none;fillColor=none;align=center;verticalAlign=middle;whiteSpace=wrap;rounded=0;" parent="1" vertex="1">
          <mxGeometry x="440" y="240" width="250" height="20" as="geometry" />
        </mxCell>
        <mxCell id="Ck8MsScD6dfkMRM8H-GI-5" value="Guardado(&lt;u&gt;nombreUsuario&lt;/u&gt;, &lt;u&gt;codigoDieta)&lt;/u&gt;" style="text;html=1;strokeColor=none;fillColor=none;align=center;verticalAlign=middle;whiteSpace=wrap;rounded=0;" parent="1" vertex="1">
          <mxGeometry x="-20" y="260" width="370" height="20" as="geometry" />
        </mxCell>
        <mxCell id="Ck8MsScD6dfkMRM8H-GI-6" value="PertenenciaPlato(&lt;u&gt;codigoIngrediente&lt;/u&gt;, &lt;u&gt;codigoPlato&lt;/u&gt;)" style="text;html=1;strokeColor=none;fillColor=none;align=center;verticalAlign=middle;whiteSpace=wrap;rounded=0;" parent="1" vertex="1">
          <mxGeometry x="30" y="540" width="360" height="20" as="geometry" />
        </mxCell>
        <mxCell id="Ck8MsScD6dfkMRM8H-GI-7" value="PlatoMenú(&lt;u&gt;codigoPlatoMenu&lt;/u&gt;,&amp;nbsp;codigoPlato, codigoDieta&lt;u&gt;,&lt;/u&gt;&amp;nbsp;diaSemana, momento)" style="text;html=1;strokeColor=none;fillColor=none;align=center;verticalAlign=middle;whiteSpace=wrap;rounded=0;" parent="1" vertex="1">
          <mxGeometry x="130" y="380" width="470" height="20" as="geometry" />
        </mxCell>
        <mxCell id="Ck8MsScD6dfkMRM8H-GI-8" value="" style="endArrow=classic;html=1;exitX=0.53;exitY=0;exitDx=0;exitDy=0;exitPerimeter=0;" parent="1" source="Ck8MsScD6dfkMRM8H-GI-5" edge="1">
          <mxGeometry width="50" height="50" relative="1" as="geometry">
            <mxPoint x="210" y="220" as="sourcePoint" />
            <mxPoint x="200" y="203" as="targetPoint" />
            <Array as="points">
              <mxPoint x="176" y="240" />
              <mxPoint x="198" y="240" />
            </Array>
          </mxGeometry>
        </mxCell>
        <mxCell id="Ck8MsScD6dfkMRM8H-GI-9" value="" style="endArrow=classic;html=1;exitX=0.67;exitY=1.2;exitDx=0;exitDy=0;exitPerimeter=0;" parent="1" source="Ck8MsScD6dfkMRM8H-GI-5" edge="1">
          <mxGeometry width="50" height="50" relative="1" as="geometry">
            <mxPoint x="370" y="280" as="sourcePoint" />
            <mxPoint x="510" y="270" as="targetPoint" />
            <Array as="points">
              <mxPoint x="228" y="300" />
              <mxPoint x="510" y="300" />
            </Array>
          </mxGeometry>
        </mxCell>
        <mxCell id="Ck8MsScD6dfkMRM8H-GI-11" value="" style="endArrow=classic;html=1;entryX=0.126;entryY=0.1;entryDx=0;entryDy=0;entryPerimeter=0;exitX=0.479;exitY=1.15;exitDx=0;exitDy=0;exitPerimeter=0;" parent="1" source="Ck8MsScD6dfkMRM8H-GI-7" target="Ck8MsScD6dfkMRM8H-GI-2" edge="1">
          <mxGeometry width="50" height="50" relative="1" as="geometry">
            <mxPoint x="440" y="420" as="sourcePoint" />
            <mxPoint x="490" y="370" as="targetPoint" />
            <Array as="points">
              <mxPoint x="355" y="440" />
              <mxPoint x="180" y="440" />
            </Array>
          </mxGeometry>
        </mxCell>
        <mxCell id="Ck8MsScD6dfkMRM8H-GI-12" value="" style="endArrow=classic;html=1;exitX=0.572;exitY=1.1;exitDx=0;exitDy=0;exitPerimeter=0;" parent="1" source="Ck8MsScD6dfkMRM8H-GI-6" edge="1">
          <mxGeometry width="50" height="50" relative="1" as="geometry">
            <mxPoint x="390" y="590" as="sourcePoint" />
            <mxPoint x="236" y="609" as="targetPoint" />
          </mxGeometry>
        </mxCell>
        <mxCell id="Ck8MsScD6dfkMRM8H-GI-13" value="" style="endArrow=classic;html=1;entryX=0.12;entryY=1.1;entryDx=0;entryDy=0;entryPerimeter=0;exitX=0.75;exitY=0;exitDx=0;exitDy=0;" parent="1" source="Ck8MsScD6dfkMRM8H-GI-6" target="Ck8MsScD6dfkMRM8H-GI-2" edge="1">
          <mxGeometry width="50" height="50" relative="1" as="geometry">
            <mxPoint x="240" y="550" as="sourcePoint" />
            <mxPoint x="290" y="500" as="targetPoint" />
            <Array as="points">
              <mxPoint x="300" y="500" />
              <mxPoint x="175" y="500" />
            </Array>
          </mxGeometry>
        </mxCell>
        <mxCell id="Ck8MsScD6dfkMRM8H-GI-14" value="" style="endArrow=classic;html=1;" parent="1" edge="1">
          <mxGeometry width="50" height="50" relative="1" as="geometry">
            <mxPoint x="400" y="377" as="sourcePoint" />
            <mxPoint x="535" y="270" as="targetPoint" />
            <Array as="points">
              <mxPoint x="400" y="330" />
              <mxPoint x="535" y="330" />
            </Array>
          </mxGeometry>
        </mxCell>
        <mxCell id="Ck8MsScD6dfkMRM8H-GI-15" value="" style="endArrow=classic;html=1;exitX=0.868;exitY=0.95;exitDx=0;exitDy=0;exitPerimeter=0;entryX=0.324;entryY=0;entryDx=0;entryDy=0;entryPerimeter=0;" parent="1" source="Ck8MsScD6dfkMRM8H-GI-1" target="Ck8MsScD6dfkMRM8H-GI-4" edge="1">
          <mxGeometry width="50" height="50" relative="1" as="geometry">
            <mxPoint x="430" y="250" as="sourcePoint" />
            <mxPoint x="480" y="200" as="targetPoint" />
            <Array as="points">
              <mxPoint x="365" y="210" />
              <mxPoint x="520" y="210" />
            </Array>
          </mxGeometry>
        </mxCell>
        <mxCell id="ht0k7h-KClMYMFjoketY-1" value="Entrada(&lt;u&gt;codigoEntrada&lt;/u&gt;, titulo, cuerpo, nombreUsuario, fecha)" style="text;html=1;strokeColor=none;fillColor=none;align=center;verticalAlign=middle;whiteSpace=wrap;rounded=0;" parent="1" vertex="1">
          <mxGeometry x="560" y="140" width="380" height="20" as="geometry" />
        </mxCell>
        <mxCell id="ht0k7h-KClMYMFjoketY-3" value="" style="endArrow=classic;html=1;exitX=0.75;exitY=0;exitDx=0;exitDy=0;entryX=0.476;entryY=-0.15;entryDx=0;entryDy=0;entryPerimeter=0;" parent="1" source="ht0k7h-KClMYMFjoketY-1" target="Ck8MsScD6dfkMRM8H-GI-1" edge="1">
          <mxGeometry width="50" height="50" relative="1" as="geometry">
            <mxPoint x="840" y="130" as="sourcePoint" />
            <mxPoint x="220" y="170" as="targetPoint" />
            <Array as="points">
              <mxPoint x="845" y="110" />
              <mxPoint x="560" y="110" />
              <mxPoint x="220" y="110" />
            </Array>
          </mxGeometry>
        </mxCell>
        <mxCell id="ht0k7h-KClMYMFjoketY-4" value="Comentario(&lt;u&gt;codigoComentario,&amp;nbsp;&lt;/u&gt;codigoPadre,cuerpo,nombreUsuario,fecha)" style="text;html=1;strokeColor=none;fillColor=none;align=center;verticalAlign=middle;whiteSpace=wrap;rounded=0;" parent="1" vertex="1">
          <mxGeometry x="680" y="200" width="230" height="20" as="geometry" />
        </mxCell>
        <mxCell id="ht0k7h-KClMYMFjoketY-5" value="" style="endArrow=classic;html=1;entryX=0.339;entryY=0.95;entryDx=0;entryDy=0;entryPerimeter=0;exitX=0.5;exitY=0;exitDx=0;exitDy=0;" parent="1" source="ht0k7h-KClMYMFjoketY-4" target="ht0k7h-KClMYMFjoketY-1" edge="1">
          <mxGeometry width="50" height="50" relative="1" as="geometry">
            <mxPoint x="710" y="220" as="sourcePoint" />
            <mxPoint x="760" y="170" as="targetPoint" />
            <Array as="points">
              <mxPoint x="795" y="180" />
              <mxPoint x="689" y="180" />
            </Array>
          </mxGeometry>
        </mxCell>
        <mxCell id="ht0k7h-KClMYMFjoketY-6" value="" style="endArrow=classic;html=1;entryX=0.424;entryY=0.1;entryDx=0;entryDy=0;entryPerimeter=0;" parent="1" target="Ck8MsScD6dfkMRM8H-GI-1" edge="1">
          <mxGeometry width="50" height="50" relative="1" as="geometry">
            <mxPoint x="930" y="200" as="sourcePoint" />
            <mxPoint x="230" y="170" as="targetPoint" />
            <Array as="points">
              <mxPoint x="930" y="182" />
              <mxPoint x="960" y="182" />
              <mxPoint x="960" y="80" />
              <mxPoint x="920" y="80" />
              <mxPoint x="201" y="80" />
            </Array>
          </mxGeometry>
        </mxCell>
        <mxCell id="TeOKMUmQrVi4oe6xd6mr-1" value="Huevo(&lt;u&gt;códigoIngrediente&lt;/u&gt;)" style="text;html=1;strokeColor=none;fillColor=none;align=center;verticalAlign=middle;whiteSpace=wrap;rounded=0;" vertex="1" parent="1">
          <mxGeometry x="640" y="510" width="40" height="20" as="geometry" />
        </mxCell>
        <mxCell id="TeOKMUmQrVi4oe6xd6mr-2" value="Marisco(&lt;u&gt;códigoIngrediente&lt;/u&gt;)" style="text;html=1;strokeColor=none;fillColor=none;align=center;verticalAlign=middle;whiteSpace=wrap;rounded=0;" vertex="1" parent="1">
          <mxGeometry x="640" y="540" width="40" height="20" as="geometry" />
        </mxCell>
        <mxCell id="TeOKMUmQrVi4oe6xd6mr-6" value="Pescado(&lt;u&gt;códigoIngrediente&lt;/u&gt;)" style="text;html=1;strokeColor=none;fillColor=none;align=center;verticalAlign=middle;whiteSpace=wrap;rounded=0;" vertex="1" parent="1">
          <mxGeometry x="640" y="575" width="40" height="20" as="geometry" />
        </mxCell>
        <mxCell id="TeOKMUmQrVi4oe6xd6mr-9" value="Cerdo(&lt;u&gt;códigoIngrediente&lt;/u&gt;)" style="text;html=1;strokeColor=none;fillColor=none;align=center;verticalAlign=middle;whiteSpace=wrap;rounded=0;" vertex="1" parent="1">
          <mxGeometry x="35" y="670" width="40" height="20" as="geometry" />
        </mxCell>
        <mxCell id="TeOKMUmQrVi4oe6xd6mr-12" value="Lactosa(&lt;u&gt;códigoIngrediente&lt;/u&gt;)" style="text;html=1;strokeColor=none;fillColor=none;align=center;verticalAlign=middle;whiteSpace=wrap;rounded=0;" vertex="1" parent="1">
          <mxGeometry x="100" y="740" width="40" height="20" as="geometry" />
        </mxCell>
        <mxCell id="TeOKMUmQrVi4oe6xd6mr-13" value="Hindú(&lt;u&gt;códigoIngrediente&lt;/u&gt;)" style="text;html=1;strokeColor=none;fillColor=none;align=center;verticalAlign=middle;whiteSpace=wrap;rounded=0;" vertex="1" parent="1">
          <mxGeometry x="270" y="740" width="40" height="20" as="geometry" />
        </mxCell>
        <mxCell id="TeOKMUmQrVi4oe6xd6mr-14" value="Cacahuete(&lt;u&gt;códigoIngrediente&lt;/u&gt;)" style="text;html=1;strokeColor=none;fillColor=none;align=center;verticalAlign=middle;whiteSpace=wrap;rounded=0;" vertex="1" parent="1">
          <mxGeometry x="460" y="740" width="40" height="20" as="geometry" />
        </mxCell>
        <mxCell id="TeOKMUmQrVi4oe6xd6mr-15" value="Soja(&lt;u&gt;códigoIngrediente&lt;/u&gt;)" style="text;html=1;strokeColor=none;fillColor=none;align=center;verticalAlign=middle;whiteSpace=wrap;rounded=0;" vertex="1" parent="1">
          <mxGeometry x="490" y="670" width="40" height="20" as="geometry" />
        </mxCell>
        <mxCell id="TeOKMUmQrVi4oe6xd6mr-18" value="" style="endArrow=classic;html=1;entryX=0.266;entryY=1;entryDx=0;entryDy=0;entryPerimeter=0;exitX=0.75;exitY=0;exitDx=0;exitDy=0;" edge="1" parent="1" source="TeOKMUmQrVi4oe6xd6mr-12" target="Ck8MsScD6dfkMRM8H-GI-3">
          <mxGeometry width="50" height="50" relative="1" as="geometry">
            <mxPoint x="170" y="710" as="sourcePoint" />
            <mxPoint x="220" y="660" as="targetPoint" />
            <Array as="points">
              <mxPoint x="130" y="650" />
              <mxPoint x="229" y="650" />
              <mxPoint x="229" y="640" />
            </Array>
          </mxGeometry>
        </mxCell>
        <mxCell id="TeOKMUmQrVi4oe6xd6mr-19" value="" style="endArrow=classic;html=1;entryX=0.309;entryY=1.15;entryDx=0;entryDy=0;entryPerimeter=0;exitX=0;exitY=0;exitDx=0;exitDy=0;" edge="1" parent="1" source="TeOKMUmQrVi4oe6xd6mr-13" target="Ck8MsScD6dfkMRM8H-GI-3">
          <mxGeometry width="50" height="50" relative="1" as="geometry">
            <mxPoint x="260" y="720" as="sourcePoint" />
            <mxPoint x="310" y="670" as="targetPoint" />
            <Array as="points">
              <mxPoint x="270" y="690" />
              <mxPoint x="254" y="690" />
            </Array>
          </mxGeometry>
        </mxCell>
        <mxCell id="TeOKMUmQrVi4oe6xd6mr-20" value="" style="endArrow=classic;html=1;entryX=0.376;entryY=1;entryDx=0;entryDy=0;entryPerimeter=0;exitX=0;exitY=0;exitDx=0;exitDy=0;" edge="1" parent="1" source="TeOKMUmQrVi4oe6xd6mr-14" target="Ck8MsScD6dfkMRM8H-GI-3">
          <mxGeometry width="50" height="50" relative="1" as="geometry">
            <mxPoint x="430" y="730" as="sourcePoint" />
            <mxPoint x="480" y="680" as="targetPoint" />
            <Array as="points">
              <mxPoint x="460" y="720" />
              <mxPoint x="410" y="720" />
              <mxPoint x="410" y="690" />
              <mxPoint x="293" y="690" />
            </Array>
          </mxGeometry>
        </mxCell>
        <mxCell id="TeOKMUmQrVi4oe6xd6mr-21" value="" style="endArrow=classic;html=1;entryX=0.297;entryY=0.05;entryDx=0;entryDy=0;entryPerimeter=0;" edge="1" parent="1" source="TeOKMUmQrVi4oe6xd6mr-1" target="Ck8MsScD6dfkMRM8H-GI-3">
          <mxGeometry width="50" height="50" relative="1" as="geometry">
            <mxPoint x="490" y="550" as="sourcePoint" />
            <mxPoint x="540" y="500" as="targetPoint" />
            <Array as="points">
              <mxPoint x="660" y="500" />
              <mxPoint x="490" y="500" />
              <mxPoint x="365" y="500" />
              <mxPoint x="365" y="570" />
              <mxPoint x="247" y="570" />
              <mxPoint x="247" y="590" />
            </Array>
          </mxGeometry>
        </mxCell>
        <mxCell id="TeOKMUmQrVi4oe6xd6mr-22" value="" style="endArrow=classic;html=1;entryX=0.398;entryY=1;entryDx=0;entryDy=0;entryPerimeter=0;exitX=0.5;exitY=0;exitDx=0;exitDy=0;" edge="1" parent="1" source="TeOKMUmQrVi4oe6xd6mr-15" target="Ck8MsScD6dfkMRM8H-GI-3">
          <mxGeometry width="50" height="50" relative="1" as="geometry">
            <mxPoint x="400" y="690" as="sourcePoint" />
            <mxPoint x="450" y="640" as="targetPoint" />
            <Array as="points">
              <mxPoint x="510" y="650" />
              <mxPoint x="306" y="650" />
            </Array>
          </mxGeometry>
        </mxCell>
        <mxCell id="TeOKMUmQrVi4oe6xd6mr-23" value="" style="endArrow=classic;html=1;entryX=0.34;entryY=-0.25;entryDx=0;entryDy=0;entryPerimeter=0;exitX=0.75;exitY=0;exitDx=0;exitDy=0;" edge="1" parent="1" source="TeOKMUmQrVi4oe6xd6mr-2" target="Ck8MsScD6dfkMRM8H-GI-3">
          <mxGeometry width="50" height="50" relative="1" as="geometry">
            <mxPoint x="480" y="580" as="sourcePoint" />
            <mxPoint x="530" y="530" as="targetPoint" />
            <Array as="points">
              <mxPoint x="390" y="540" />
              <mxPoint x="390" y="580" />
              <mxPoint x="272" y="580" />
            </Array>
          </mxGeometry>
        </mxCell>
        <mxCell id="TeOKMUmQrVi4oe6xd6mr-25" value="" style="endArrow=classic;html=1;exitX=0.5;exitY=0;exitDx=0;exitDy=0;entryX=0.384;entryY=-0.2;entryDx=0;entryDy=0;entryPerimeter=0;" edge="1" parent="1" source="TeOKMUmQrVi4oe6xd6mr-6" target="Ck8MsScD6dfkMRM8H-GI-3">
          <mxGeometry width="50" height="50" relative="1" as="geometry">
            <mxPoint x="530" y="430" as="sourcePoint" />
            <mxPoint x="580" y="380" as="targetPoint" />
            <Array as="points">
              <mxPoint x="670" y="570" />
              <mxPoint x="490" y="570" />
              <mxPoint x="490" y="590" />
              <mxPoint x="298" y="590" />
            </Array>
          </mxGeometry>
        </mxCell>
        <mxCell id="TeOKMUmQrVi4oe6xd6mr-26" value="" style="endArrow=classic;html=1;entryX=0.25;entryY=0;entryDx=0;entryDy=0;exitX=1;exitY=0;exitDx=0;exitDy=0;" edge="1" parent="1" source="TeOKMUmQrVi4oe6xd6mr-9" target="Ck8MsScD6dfkMRM8H-GI-3">
          <mxGeometry width="50" height="50" relative="1" as="geometry">
            <mxPoint x="20" y="640" as="sourcePoint" />
            <mxPoint x="70" y="590" as="targetPoint" />
            <Array as="points">
              <mxPoint x="75" y="570" />
              <mxPoint x="220" y="570" />
            </Array>
          </mxGeometry>
        </mxCell>
      </root>
    </mxGraphModel>
  </diagram>
</mxfile>
